<?xml version="1.0" encoding="UTF-8"?>
<svg id="_レイヤー_2" data-name="レイヤー 2" xmlns="http://www.w3.org/2000/svg" viewBox="0 0 166.11 124.59">
  <defs>
    <style>
      .cls-1 {
        fill: none;
      }

      .cls-1, .cls-2, .cls-3 {
        stroke-width: 0px;
      }

      .cls-2 {
        fill: #3fb8c9;
      }

      .cls-3 {
        fill: #e8d703;
      }
    </style>
  </defs>
  <g id="_レイヤー_2-2" data-name=" レイヤー 2">
    <path class="cls-1" d="m165.89,97.34c-1.14,0-6.38,6.16-8.21,7.18-2.05,1.14-3.42,4.1-5.59,5.59-1.71,1.03-2.39,3.08-3.99,4.22-1.6,1.14-2.51,2.85-3.99,4.1-1.48,1.14-2.74,2.85-2.74,4.79,0,.34.11,1.37.68,1.37.68,0,2.85-3.19,3.88-3.88,2.05-1.37,2.96-3.65,4.79-5.13,2.17-1.6,3.53-3.08,4.9-5.47,1.25-1.82,3.31-2.85,4.56-4.79,1.03-1.6,5.02-4.9,5.36-5.93.23-.46.57-1.25.57-1.71,0-.11-.11-.34-.23-.34h0Z"/>
    <path class="cls-1" d="m29.32,38.07c.57-.57,1.48-.68,2.28-1.14,0-.46-1.03-.91-1.37-.91-1.03,0-2.17.91-3.08,1.37-1.37.91-2.96.68-4.22,1.94-1.14,1.03-2.39,1.14-3.19,2.39-.34.57-1.48.91-1.48,1.82.57,0,5.81-2.51,6.95-2.96,1.6-.68,2.96-1.14,4.1-2.51h0Z"/>
    <path class="cls-1" d="m79.24,84.47c0-.34-.11-.68-.23-.91-.34-1.6-6.38-4.79-7.98-4.79-2.39,0-5.24,2.96-6.73,4.56-.9.96-1.66,1.76-2.19,2.7l16.73-.87c.25-.27.4-.51.4-.69h0Z"/>
    <path class="cls-1" d="m71.15,73.98c5.47,0,11.17,5.81,14.14,5.81,1.14,0,2.05-.91,2.85-1.71,15.05-14.71,17.9-17.56,20.75-20.63,8.21-8.78,16.42-17.44,25.08-25.88,3.08-2.96,9.12-9.92,13.11-10.94.8-.11,1.6-.34,2.39-.34,1.14,0,2.39.46,2.39,1.82,0,.57-.23,1.14-.34,1.6-1.14,2.85-3.65,5.59-6.38,6.95-3.42,1.71-4.79,5.24-7.41,7.75-3.19,3.08-5.93,6.38-8.66,9.92-1.25,1.48-2.85,2.62-4.33,3.99s-2.85,2.85-4.1,4.56c-3.31,4.45-7.18,8.21-11.63,11.4-2.96,2.17-5.02,5.13-7.98,7.3-1.6,1.25-7.18,4.79-7.41,7.3,1.03,1.03,2.85,1.03,4.33,1.03,9.12,0,18.47-2.39,26.56-6.84,6.95-3.88,14.02-7.07,19.72-12.77,5.02-5.02,9.69-10.94,13-17.21,1.94-3.53,2.96-7.41,4.1-11.17s1.6-7.87,1.6-11.86c0-2.05,0-4.22-1.03-6.04-2.39-3.99-5.59-9.58-9.92-11.63-4.22-1.94-11.4-3.31-16.07-3.31-15.39,0-33.4,2.39-47.31,8.89-3.65,1.71-7.64,2.28-11.29,4.1-3.88,1.94-7.3,4.45-10.6,7.18-3.99,3.19-7.3,6.95-11.63,9.58-3.31,2.05-6.27,3.53-7.98,7.18-1.37,2.74-4.33,4.9-6.38,7.07-1.37,1.48-2.74,2.96-3.88,4.56-3.53,5.13-6.73,10.37-10.03,15.62-2.39,3.88-5.02,7.52-6.38,11.97-.57,2.28-1.71,4.33-2.51,6.5-.31.84-.61,1.74-.88,2.66l41.42-2.16c.29-.71.7-1.39,1.3-2.09,2.74-3.19,6.61-10.15,11.4-10.15h-.01Z"/>
    <path class="cls-1" d="m63.96,91.88c.8,0,1.48-.11,2.28-.11,1.72,0,10.61-4.48,12.6-6.61l-16.73.87c-.48.85-.77,1.81-.77,3.11,0,1.94.68,2.74,2.62,2.74Z"/>
    <g>
      <path class="cls-2" d="m137.72,73.19c4.22-3.08,8.32-6.38,11.97-10.03,4.45-4.33,7.75-10.15,10.94-15.39,1.6-2.51,1.37-5.36,2.74-7.75,1.37-2.28,1.25-4.79,1.94-7.3.57-2.05.8-3.99.8-6.16,0-1.14-.11-2.39-.34-3.53-1.03-5.93-1.25-8.44-4.9-13.45C154.02.23,140,0,129.51,0c-4.33,0-8.66,0-13,.23-4.9.23-14.82,2.05-19.49,3.76-4.79,1.82-10.26,2.17-15.39,4.1-3.99,1.6-7.98,4.33-11.63,5.59-2.17.8-4.1,2.28-6.04,3.53-3.53,2.17-7.07,4.33-10.83,6.27-7.3,3.99-13.57,9.69-20.06,14.93-9.23,7.64-25.88,29.53-27.82,42.07-.34,2.62-.34,5.36-.91,7.98-.04.19-.06.39-.09.59l12.77-.67c.28-.92.57-1.81.88-2.66.8-2.17,1.94-4.22,2.51-6.5,1.37-4.45,3.99-8.09,6.38-11.97,3.31-5.24,6.5-10.49,10.03-15.62,1.14-1.6,2.51-3.08,3.88-4.56,2.05-2.17,5.02-4.33,6.38-7.07,1.71-3.65,4.67-5.13,7.98-7.18,4.33-2.62,7.64-6.38,11.63-9.58,3.31-2.74,6.73-5.24,10.6-7.18,3.65-1.82,7.64-2.39,11.29-4.1,13.91-6.5,31.92-8.89,47.31-8.89,4.67,0,11.86,1.37,16.07,3.31,4.33,2.05,7.52,7.64,9.92,11.63,1.03,1.82,1.03,3.99,1.03,6.04,0,3.99-.46,8.09-1.6,11.86-1.14,3.76-2.17,7.64-4.1,11.17-3.31,6.27-7.98,12.2-13,17.21-5.7,5.7-12.77,8.89-19.72,12.77-8.09,4.45-17.44,6.84-26.56,6.84-1.48,0-3.31,0-4.33-1.03.23-2.51,5.81-6.04,7.41-7.3,2.96-2.17,5.02-5.13,7.98-7.3,4.45-3.19,8.32-6.95,11.63-11.4,1.25-1.71,2.62-3.19,4.1-4.56s3.08-2.51,4.33-3.99c2.74-3.53,5.47-6.84,8.66-9.92,2.62-2.51,3.99-6.04,7.41-7.75,2.74-1.37,5.24-4.1,6.38-6.95.11-.46.34-1.03.34-1.6,0-1.37-1.25-1.82-2.39-1.82-.8,0-1.6.23-2.39.34-3.99,1.03-10.03,7.98-13.11,10.94-8.66,8.44-16.87,17.1-25.08,25.88-2.85,3.08-5.7,5.93-20.75,20.63-.8.8-1.71,1.71-2.85,1.71-2.96,0-8.66-5.81-14.14-5.81-4.79,0-8.66,6.95-11.4,10.15-.6.7-1.02,1.38-1.3,2.09l3.67-.19c.53-.94,1.3-1.74,2.19-2.7,1.48-1.6,4.33-4.56,6.73-4.56,1.6,0,7.64,3.19,7.98,4.79.11.23.23.57.23.91,0,.18-.15.42-.4.69l41.63-2.17c2.3-1,4.35-2.36,6.53-3.53,3.65-2.05,7.3-3.88,10.72-6.27h.01Z"/>
      <path class="cls-3" d="m62.24,93.77c-.8,0-1.48.11-2.28.11-1.94,0-2.62-.8-2.62-2.74,0-1.3.29-2.26.77-3.11l-3.67.19c-.37.91-.52,1.88-.52,3.04,0,5.02,1.37,4.67,5.47,6.38.23.11.57.11.8.11,2.85,0,10.15-2.96,13-4.1,2.74-1.14,5.02-2.96,7.52-4.45.23-.11.46-.11.57-.11,1.82,0,4.9,2.74,7.98,2.74,1.94,0,3.76-.34,5.59-.34.91,0,1.94.11,2.85.11,1.6,0,3.76-1.25,5.24-1.71,1.03-.34,2.05-.46,3.19-.68,4.79-.57,4.56-2.39,7.75-3.31.9-.24,1.76-.56,2.59-.92l-41.63,2.17c-1.99,2.13-10.88,6.61-12.6,6.61h0Z"/>
      <path class="cls-3" d="m0,94c0,3.31.68,7.3,2.17,10.37,1.37,2.62,1.25,3.88,3.31,6.61,1.94,2.39,6.95,6.84,10.15,6.84h1.14c1.94,0,3.88.8,5.93.8,1.25,0,2.39-.46,3.65-.46,1.03,0,1.94.11,2.96.11h.8c2.62-.23,5.02-1.37,7.52-1.82,3.08-.46,6.04-1.71,9.01-2.17,1.48-.23,8.89-2.85,8.89-4.22,0-.46-.34-.68-.8-.68-1.03,0-5.93,2.28-7.41,2.74-2.96,1.03-7.07,1.94-10.26,1.94-1.14,0-2.28-.23-3.53-.23-1.14,0-2.28.46-3.42.46s-2.39-.57-3.53-.57c-1.25,0-2.39.23-3.65.23-1.6,0-2.62-.23-3.99-1.14-5.13-3.19-7.64-5.47-7.64-11.86,0-3.33.71-7.14,1.74-10.57l-12.77.67c-.16.95-.25,1.91-.25,2.94h-.02Z"/>
    </g>
  </g>
</svg>