<?xml version="1.0" encoding="UTF-8"?>
<svg id="_レイヤー_2" data-name="レイヤー 2" xmlns="http://www.w3.org/2000/svg" viewBox="0 0 468.42 173.8">
  <defs>
    <style>
      .cls-1 {
        fill: none;
      }

      .cls-1, .cls-2, .cls-3, .cls-4 {
        stroke-width: 0px;
      }

      .cls-3 {
        fill: #f6e84f;
      }

      .cls-4 {
        fill: #a7d3db;
      }
    </style>
  </defs>
  <g id="_レイヤー_1-2" data-name="レイヤー 1">
    <g>
      <path class="cls-1" d="m324.11,75.47c0,.91.34,1.94,1.37,1.94,2.39,0,9.01-2.05,11.06-3.42,1.82-1.05,3.57-1.86,5.49-2.56l-14.22.74c-.91.5-1.81,1.02-2.67,1.59-.8.46-1.03.91-1.03,1.71Z"/>
      <path class="cls-1" d="m307.01,126.42c-1.14,0-6.38,6.16-8.21,7.18-2.05,1.14-3.42,4.1-5.59,5.59-1.71,1.03-2.39,3.08-3.99,4.22-1.6,1.14-2.51,2.85-3.99,4.1-1.48,1.14-2.74,2.85-2.74,4.79,0,.34.11,1.37.68,1.37.68,0,2.85-3.19,3.88-3.88,2.05-1.37,2.96-3.65,4.79-5.13,2.17-1.6,3.53-3.08,4.9-5.47,1.25-1.82,3.31-2.85,4.56-4.79,1.03-1.6,5.02-4.9,5.36-5.93.23-.46.57-1.25.57-1.71,0-.11-.11-.34-.23-.34Z"/>
      <path class="cls-1" d="m225.5,83.1c0,1.25,1.71,1.71,2.74,1.71,1.94,0,4.33,0,6.04-1.03,1.82-1.03,4.33-1.37,6.38-1.94,1.48-.46,3.08-1.14,4.56-1.82,1.48-.8,3.19-1.25,4.79-1.82,1.25-.46,2.39-1.14,3.76-1.6.57-.22,1.17-.44,1.76-.67l-27.44,1.43c-.45,1.66-.81,3.42-2.02,4.71-.23.34-.57.57-.57,1.03Z"/>
      <path class="cls-1" d="m348.96,76.83c-3.65,3.76-5.36,8.78-8.78,12.65-1.37,1.48-2.39,3.19-3.88,4.56-1.25,1.14-1.82,2.85-2.85,4.1-.91.91-2.74,3.31-2.74,4.67,0,.23.11.34.34.34,1.37,0,5.93-3.99,7.3-4.9,2.28-1.6,5.02-2.62,7.18-4.56,2.74-2.51,5.93-4.33,9.23-6.16,2.05-1.14,3.88-2.62,6.04-3.65,1.94-.8,3.76-1.94,5.59-3.08,2.17-1.25,4.45-2.05,6.73-3.19.65-.34,1.64-.88,2.74-1.45,1.91-1.15,4.83-2.51,5.58-2.89,2.44-1.37,4.73-2.9,7.2-4.31l-34.91,1.82c-.4.5-.77.93-1.01,1.24-1.37,1.6-2.28,3.42-3.76,4.79Z"/>
      <path class="cls-1" d="m260.84,82.31c-.34.8-.68,1.6-.68,2.39,0,2.51,3.19,2.74,5.02,2.74,4.33,0,6.95-.11,11.06-1.6,3.31-1.25,6.95-1.71,10.15-3.19,4.56-2.05,9.12-3.76,13.68-5.7,1.48-.55,4.59-2.15,6.63-2.74.51-.37,1.04-.71,1.61-1.03l-40.65,2.12c-.1.05-.21.11-.31.16-2.85,1.6-5.24,3.88-6.5,6.84Z"/>
      <path class="cls-1" d="m162.57,86.52c3.99,0,6.27-.91,9.92-1.48,2.39-.46,4.45-1.14,6.5-2.17,2.51-1.14,5.13-1.82,7.52-2.96.2-.1.52-.24.91-.42l-31.46,1.64c0,.05,0,.1,0,.15,0,3.53,3.42,5.24,6.61,5.24Z"/>
      <path class="cls-1" d="m220.6,67.83c0-.57-.23-.91-.8-.91-.91,0-1.82.46-2.51.8-1.25.57-2.51.91-3.65,1.37-2.14.8-7.95,3.89-12.76,6.3-.04.03-.08.06-.12.08-2.1,1.72-4.78,2.66-7.42,3.72l25.59-1.34c.37-.81.71-1.62.87-2.49.57-2.51.8-5.02.8-7.52Z"/>
      <path class="cls-1" d="m170.44,67.15c.57-.57,1.48-.68,2.28-1.14,0-.46-1.03-.91-1.37-.91-1.03,0-2.17.91-3.08,1.37-1.37.91-2.96.68-4.22,1.94-1.14,1.03-2.39,1.14-3.19,2.39-.34.57-1.48.91-1.48,1.82.57,0,5.81-2.51,6.95-2.96,1.6-.68,2.96-1.14,4.1-2.51Z"/>
      <path class="cls-1" d="m395.32,68.64l2.82-.15c.34-.49.55-.89.52-1.12-1.24,0-2.27.68-3.34,1.27Z"/>
      <path class="cls-1" d="m79.24,84.47c0-.34-.11-.68-.23-.91-.34-1.6-6.38-4.79-7.98-4.79-2.39,0-5.24,2.96-6.73,4.56-.9.96-1.66,1.76-2.19,2.7l16.73-.87c.25-.27.4-.51.4-.69Z"/>
      <path class="cls-1" d="m71.15,73.98c5.47,0,11.17,5.81,14.14,5.81,1.14,0,2.05-.91,2.85-1.71,15.05-14.71,17.9-17.56,20.75-20.63,8.21-8.78,16.42-17.44,25.08-25.88,3.08-2.96,9.12-9.92,13.11-10.94.8-.11,1.6-.34,2.39-.34,1.14,0,2.39.46,2.39,1.82,0,.57-.23,1.14-.34,1.6-1.14,2.85-3.65,5.59-6.38,6.95-3.42,1.71-4.79,5.24-7.41,7.75-3.19,3.08-5.93,6.38-8.66,9.92-1.25,1.48-2.85,2.62-4.33,3.99s-2.85,2.85-4.1,4.56c-3.31,4.45-7.18,8.21-11.63,11.4-2.96,2.17-5.02,5.13-7.98,7.3-1.6,1.25-7.18,4.79-7.41,7.3,1.03,1.03,2.85,1.03,4.33,1.03,9.12,0,18.47-2.39,26.56-6.84,6.95-3.88,14.02-7.07,19.72-12.77,5.02-5.02,9.69-10.94,13-17.21,1.94-3.53,2.96-7.41,4.1-11.17,1.14-3.76,1.6-7.87,1.6-11.86,0-2.05,0-4.22-1.03-6.04-2.39-3.99-5.59-9.58-9.92-11.63-4.22-1.94-11.4-3.31-16.07-3.31-15.39,0-33.4,2.39-47.31,8.89-3.65,1.71-7.64,2.28-11.29,4.1-3.88,1.94-7.3,4.45-10.6,7.18-3.99,3.19-7.3,6.95-11.63,9.58-3.31,2.05-6.27,3.53-7.98,7.18-1.37,2.74-4.33,4.9-6.38,7.07-1.37,1.48-2.74,2.96-3.88,4.56-3.53,5.13-6.73,10.37-10.03,15.62-2.39,3.88-5.02,7.52-6.38,11.97-.57,2.28-1.71,4.33-2.51,6.5-.31.84-.61,1.74-.88,2.66l41.42-2.16c.29-.71.7-1.39,1.3-2.09,2.74-3.19,6.61-10.15,11.4-10.15Z"/>
      <path class="cls-1" d="m402.99,74.78c-1.14,1.71-1.82,3.31-3.53,4.56-.68.57-2.28,1.6-2.28,2.62,0,.34.34.57.68.57.91,0,3.42-1.48,4.56-1.82,2.05-.57,3.99-1.25,5.81-2.39,4.1-2.51,9.23-2.62,13.45-5.24,1.82-1.14,4.45-2.85,6.61-3.31,2.17-.49,3.99-2.26,6.14-3.17l-24.18,1.26c-1.9,2.5-5.82,4.71-7.27,6.92Z"/>
      <path class="cls-1" d="m63.96,91.88c.8,0,1.48-.11,2.28-.11,1.72,0,10.61-4.48,12.6-6.61l-16.73.87c-.48.85-.77,1.81-.77,3.11,0,1.94.68,2.74,2.62,2.74Z"/>
      <path class="cls-4" d="m137.72,73.19c4.22-3.08,8.32-6.38,11.97-10.03,4.45-4.33,7.75-10.15,10.94-15.39,1.6-2.51,1.37-5.36,2.74-7.75,1.37-2.28,1.25-4.79,1.94-7.3.57-2.05.8-3.99.8-6.16,0-1.14-.11-2.39-.34-3.53-1.03-5.93-1.25-8.44-4.9-13.45C154.02.23,140,0,129.51,0c-4.33,0-8.66,0-13,.23-4.9.23-14.82,2.05-19.49,3.76-4.79,1.82-10.26,2.17-15.39,4.1-3.99,1.6-7.98,4.33-11.63,5.59-2.17.8-4.1,2.28-6.04,3.53-3.53,2.17-7.07,4.33-10.83,6.27-7.3,3.99-13.57,9.69-20.06,14.93-9.23,7.64-25.88,29.53-27.82,42.07-.34,2.62-.34,5.36-.91,7.98-.04.19-.06.39-.09.59l12.77-.67c.28-.92.57-1.81.88-2.66.8-2.17,1.94-4.22,2.51-6.5,1.37-4.45,3.99-8.09,6.38-11.97,3.31-5.24,6.5-10.49,10.03-15.62,1.14-1.6,2.51-3.08,3.88-4.56,2.05-2.17,5.02-4.33,6.38-7.07,1.71-3.65,4.67-5.13,7.98-7.18,4.33-2.62,7.64-6.38,11.63-9.58,3.31-2.74,6.73-5.24,10.6-7.18,3.65-1.82,7.64-2.39,11.29-4.1,13.91-6.5,31.92-8.89,47.31-8.89,4.67,0,11.86,1.37,16.07,3.31,4.33,2.05,7.52,7.64,9.92,11.63,1.03,1.82,1.03,3.99,1.03,6.04,0,3.99-.46,8.09-1.6,11.86-1.14,3.76-2.17,7.64-4.1,11.17-3.31,6.27-7.98,12.2-13,17.21-5.7,5.7-12.77,8.89-19.72,12.77-8.09,4.45-17.44,6.84-26.56,6.84-1.48,0-3.31,0-4.33-1.03.23-2.51,5.81-6.04,7.41-7.3,2.96-2.17,5.02-5.13,7.98-7.3,4.45-3.19,8.32-6.95,11.63-11.4,1.25-1.71,2.62-3.19,4.1-4.56s3.08-2.51,4.33-3.99c2.74-3.53,5.47-6.84,8.66-9.92,2.62-2.51,3.99-6.04,7.41-7.75,2.74-1.37,5.24-4.1,6.38-6.95.11-.46.34-1.03.34-1.6,0-1.37-1.25-1.82-2.39-1.82-.8,0-1.6.23-2.39.34-3.99,1.03-10.03,7.98-13.11,10.94-8.66,8.44-16.87,17.1-25.08,25.88-2.85,3.08-5.7,5.93-20.75,20.63-.8.8-1.71,1.71-2.85,1.71-2.96,0-8.66-5.81-14.14-5.81-4.79,0-8.66,6.95-11.4,10.15-.6.7-1.02,1.38-1.3,2.09l3.67-.19c.53-.94,1.3-1.74,2.19-2.7,1.48-1.6,4.33-4.56,6.73-4.56,1.6,0,7.64,3.19,7.98,4.79.11.23.23.57.23.91,0,.18-.15.42-.4.69l41.63-2.17c2.3-1,4.35-2.36,6.53-3.53,3.65-2.05,7.3-3.88,10.72-6.27Z"/>
      <path class="cls-4" d="m200.88,75.38c-3.38,1.69-6.27,3.05-7.07,3.05-.46,0-1.14-.23-1.14-.68,0-.23.11-.34.23-.57.03-.05.31-.22.71-.46-2.4,1.05-4.8,2.14-6.19,2.77l5.92-.31c2.63-1.05,5.32-1.99,7.42-3.72.04-.03.08-.06.12-.08Z"/>
      <path class="cls-4" d="m160.41,74.44c1.6-.91,3.31-1.6,5.13-2.28,1.94-.68,3.53-2.17,5.59-2.74,2.28-.57,2.62-.91,4.56-2.28.68-.57,2.39-1.03,2.85-1.48,1.37-1.48,2.51-2.74,2.51-4.9,0-1.82-1.71-2.39-3.19-2.39-.91,0-1.82.23-2.74.23-.46,0-.8-.11-1.14-.11-2.17,0-5.7,1.03-7.87,1.71-6.73,2.05-8.21,2.85-13.57,7.52-1.94,1.71-3.53,3.76-5.47,5.36-2.17,1.71-1.14,2.51-2.51,4.33-.91,1.14-2.17,2.39-2.17,3.99,0,.14.02.29.05.44l13.51-.71c.02-3.97.95-4.89,4.44-6.69Zm.46-3.65c.8-1.25,2.05-1.37,3.19-2.39,1.25-1.25,2.85-1.03,4.22-1.94.91-.46,2.05-1.37,3.08-1.37.34,0,1.37.46,1.37.91-.8.46-1.71.57-2.28,1.14-1.14,1.37-2.51,1.82-4.1,2.51-1.14.46-6.38,2.96-6.95,2.96,0-.91,1.14-1.25,1.48-1.82Z"/>
      <path class="cls-4" d="m228.58,75.81c.57-1.25.57-2.51.57-3.88,0-.57-.11-1.37-.11-2.17,0-1.6.11-3.19.8-4.33,1.25-2.39,3.08-2.39,4.9-3.99,1.82-1.71,5.02-3.42,7.41-4.22.68-.23,1.25-.46,1.25-1.25,0-1.14-1.03-2.74-2.28-2.74-4.22,0-14.48,3.76-17.44,6.73-.57.68-1.03,1.48-1.71,2.17-2.17,1.82-7.18,3.65-9.8,4.79-1.14.57-2.39,1.03-3.31,1.82-.68.57-1.14.8-1.94,1.14l-2.74,1.25c-1.06.48-8.27,4.25-10.57,5.58,3.34-1.46,6.67-2.85,7.27-2.85.34,0,.68.23.68.57,0,.41-.36.72-.68.94,4.82-2.41,10.62-5.5,12.76-6.3,1.14-.46,2.39-.8,3.65-1.37.68-.34,1.6-.8,2.51-.8.57,0,.8.34.8.91,0,2.51-.23,5.02-.8,7.52-.15.88-.5,1.68-.87,2.49l9.15-.48c.14-.53.3-1.06.49-1.56Z"/>
      <path class="cls-2" d="m256.29,75.64c-.26.1-.5.2-.76.3l.52-.03c.07-.09.15-.17.24-.27Z"/>
      <path class="cls-4" d="m192.67,77.75c0,.46.68.68,1.14.68.8,0,3.69-1.36,7.07-3.05.32-.23.68-.54.68-.94,0-.34-.34-.57-.68-.57-.59,0-3.93,1.39-7.27,2.85-.41.24-.68.41-.71.46-.11.23-.23.34-.23.57Z"/>
      <path class="cls-4" d="m287.17,31.58c1.48,1.14,4.33.8,6.38,1.48,1.14.34,1.82.46,2.96.46.8,0,2.05-.11,2.05-1.14,0-1.48-2.28-2.96-3.31-3.65-2.85-1.71-1.6-.68-3.53-2.74-.68-.8-1.71-2.74-2.74-2.74-.8,0-2.74,1.25-3.53,1.71-.68.46-1.14.91-1.14,1.71,0,1.6,1.6,3.99,2.85,4.9Z"/>
      <path class="cls-4" d="m261.3,73.87c.23,0,.8,0,.8.46,0,.57-.46.91-.8,1.14-.1.06-.21.12-.31.18l6.67-.35c2.75-1.43,5.48-2.87,8.01-4.63,2.96-2.17,5.7-4.79,8.55-7.18.23-.23.57-.46.57-.8,0-1.14-2.28-1.6-3.19-1.6-1.82,0-3.65.68-5.47,1.03-1.94.23-2.85,1.37-4.67,2.28-.91.46-2.05.8-3.08,1.14-2.27.65-9.73,7.52-12.07,10.09.69-.27,1.38-.55,2.04-.85.91-.46,1.82-.91,2.96-.91Z"/>
      <path class="cls-4" d="m260.98,75.65c.1-.06.21-.12.31-.18.34-.23.8-.57.8-1.14,0-.46-.57-.46-.8-.46-1.14,0-2.05.46-2.96.91-.66.31-1.35.58-2.04.85-.09.1-.17.19-.24.27l4.93-.26Z"/>
      <path class="cls-4" d="m260.98,75.65l-4.93.26s-.08.09-.11.13c-.78.87-1.53,1.85-2.16,2.91.41-.15.83-.28,1.25-.4,1.94-.54,4.09-1.79,5.96-2.89Z"/>
      <path class="cls-4" d="m334.82,68.17c2.74-2.05,5.59-3.88,8.78-5.13,2.17-.91,4.22-1.94,6.38-3.08,1.71-1.03,5.02-1.03,7.18-1.03,3.08,0,4.45,2.96,4.45,5.36,0,1.48-.91,2.62-.91,4.1,0,.34.11,1.94.68,1.94.68,0,1.6-2.51,1.71-3.08.46-1.25.57-2.39.57-3.65,0-1.37-.11-2.62-.23-3.99-.34-2.85-.11-4.1-3.31-4.9-1.03-.23-2.05-.23-3.08-.23-6.38,0-16.64,2.96-22.12,6.16-6.16,3.65-12.65,6.38-19.15,9.12-3.19,1.39-5.54,2.31-7.49,3.41l19.51-1.02c2.35-1.29,4.8-2.43,7.02-3.99Z"/>
      <path class="cls-2" d="m382.02,75.58c.13-.06.24-.13.35-.2-.96.52-2,1.06-2.99,1.54.92-.39,1.84-.81,2.65-1.34Z"/>
      <path class="cls-4" d="m356.26,66.58c0-.57-.57-1.14-1.14-1.14-2.51,0-8.89,4.67-11.97,5.59-.38.13-.75.27-1.12.4l11.7-.61c1.11-1.37,2.52-3.23,2.52-4.24Z"/>
      <path class="cls-4" d="m308.95,74.67c0-.46-.68-.68-1.03-.68s-.75.08-1.23.22c-1.26.91-2.37,2.04-3.49,3.59,1.18-.54,2.36-1.07,3.58-1.54.57-.23,2.17-.8,2.17-1.6Z"/>
      <path class="cls-4" d="m411.32,65.21c0-4.56-4.79-3.88-7.98-4.45-.11-.11-.34-.11-.46-.11-1.6,0-2.96,1.94-3.88,1.94-1.25,0-2.51,2.05-4.1,2.39-2.05.57-3.19,2.39-5.02,3.31-.42.23-.83.47-1.24.7l6.67-.35c1.07-.58,2.1-1.27,3.34-1.27.02.23-.18.63-.52,1.12l12.12-.63c.64-.85,1.06-1.73,1.06-2.65Z"/>
      <path class="cls-2" d="m376.61,78.14c.74-.27,1.71-.71,2.76-1.22-.65.28-1.3.54-1.91.82-.29.12-.57.26-.85.4Z"/>
      <g>
        <path class="cls-3" d="m62.24,93.77c-.8,0-1.48.11-2.28.11-1.94,0-2.62-.8-2.62-2.74,0-1.3.29-2.26.77-3.11l-3.67.19c-.37.91-.52,1.88-.52,3.04,0,5.02,1.37,4.67,5.47,6.38.23.11.57.11.8.11,2.85,0,10.15-2.96,13-4.1,2.74-1.14,5.02-2.96,7.52-4.45.23-.11.46-.11.57-.11,1.82,0,4.9,2.74,7.98,2.74,1.94,0,3.76-.34,5.59-.34.91,0,1.94.11,2.85.11,1.6,0,3.76-1.25,5.24-1.71,1.03-.34,2.05-.46,3.19-.68,4.79-.57,4.56-2.39,7.75-3.31.9-.24,1.76-.56,2.59-.92l-41.63,2.17c-1.99,2.13-10.88,6.61-12.6,6.61Z"/>
        <path class="cls-3" d="m0,94c0,3.31.68,7.3,2.17,10.37,1.37,2.62,1.25,3.88,3.31,6.61,1.94,2.39,6.95,6.84,10.15,6.84h1.14c1.94,0,3.88.8,5.93.8,1.25,0,2.39-.46,3.65-.46,1.03,0,1.94.11,2.96.11h.8c2.62-.23,5.02-1.37,7.52-1.82,3.08-.46,6.04-1.71,9.01-2.17,1.48-.23,8.89-2.85,8.89-4.22,0-.46-.34-.68-.8-.68-1.03,0-5.93,2.28-7.41,2.74-2.96,1.03-7.07,1.94-10.26,1.94-1.14,0-2.28-.23-3.53-.23-1.14,0-2.28.46-3.42.46s-2.39-.57-3.53-.57c-1.25,0-2.39.23-3.65.23-1.6,0-2.62-.23-3.99-1.14-5.13-3.19-7.64-5.47-7.64-11.86,0-3.33.71-7.14,1.74-10.57l-12.77.67c-.16.95-.25,1.91-.25,2.94Z"/>
        <path class="cls-3" d="m182.51,81.91c-2.39,1.14-5.02,1.82-7.52,2.96-2.05,1.03-4.1,1.71-6.5,2.17-3.65.57-5.93,1.48-9.92,1.48-3.19,0-6.61-1.71-6.61-5.24,0-.05,0-.1,0-.15l-13.51.71c.47,2.1,4.04,4.65,5.53,5.71,1.48,1.03,2.85.8,4.56,1.14,2.39.57,4.67,1.94,7.18,1.94,1.25,0,2.39-.57,3.65-.57h.91c2.96,0,5.13-1.6,7.75-2.17,1.71-.46,3.19-1.37,4.79-1.82,4.22-1.37,8.89-2.74,12.54-5.02,1.25-.74,2.61-1.32,3.98-1.87l-5.92.31c-.39.18-.7.33-.91.42Z"/>
        <path class="cls-3" d="m252.05,77.91l-.52.03c-.59.23-1.19.45-1.76.67-1.37.46-2.51,1.14-3.76,1.6-1.6.57-3.31,1.03-4.79,1.82-1.48.68-3.08,1.37-4.56,1.82-2.05.57-4.56.91-6.38,1.94-1.71,1.03-4.1,1.03-6.04,1.03-1.03,0-2.74-.46-2.74-1.71,0-.46.34-.68.57-1.03,1.21-1.29,1.57-3.05,2.02-4.71l-9.15.48c-.45.98-.94,1.97-1.18,3.09-.46,2.28-4.56,3.31-6.61,3.31-1.94,0-3.76-.8-5.7-.8-1.71,0-2.05,2.39-3.08,3.31-.8.8-1.25,1.48-1.25,2.74,0,1.82,1.94,5.13,3.99,5.13.91,0,1.82-.68,2.85-.8,3.76-.68,10.49-5.02,12.77-5.02,2.62,0,5.24-.8,7.98-.8,6.61,0,15.73-4.45,21.55-7.41,1.11-.6,2.29-1.2,3.54-1.65.63-1.05,1.38-2.04,2.16-2.91.03-.04.08-.09.11-.13Z"/>
        <path class="cls-3" d="m302.69,76.21c-2.04.59-5.16,2.19-6.63,2.74-4.56,1.94-9.12,3.65-13.68,5.7-3.19,1.48-6.84,1.94-10.15,3.19-4.1,1.48-6.73,1.6-11.06,1.6-1.82,0-5.02-.23-5.02-2.74,0-.8.34-1.6.68-2.39,1.25-2.96,3.65-5.24,6.5-6.84.1-.05.21-.11.31-.16l-6.67.35c-1.87,1.1-4.01,2.35-5.96,2.89-.42.11-.84.25-1.25.4-.94,1.57-1.6,3.3-1.6,5.07,0,.91.23,1.94.57,2.74,2.05,4.56,3.76,2.39,6.84,3.88,1.37.68,2.85,1.14,4.45,1.14,1.94,0,3.65-1.14,5.59-1.14,1.71,0,3.53-.91,5.24-1.14,4.56-.8,8.21-3.65,12.54-4.79,3.42-.91,6.5-2.85,9.8-4.22,2.01-.79,3.99-1.76,5.99-2.68,1.12-1.56,2.23-2.68,3.49-3.59Z"/>
        <path class="cls-3" d="m370.15,79.63c0-.31.73-.85,1.72-1.45-1.1.56-2.09,1.1-2.74,1.45-2.28,1.14-4.56,1.94-6.73,3.19-1.82,1.14-3.65,2.28-5.59,3.08-2.17,1.03-3.99,2.51-6.04,3.65-3.31,1.82-6.5,3.65-9.23,6.16-2.17,1.94-4.9,2.96-7.18,4.56-1.37.91-5.93,4.9-7.3,4.9-.23,0-.34-.11-.34-.34,0-1.37,1.82-3.76,2.74-4.67,1.03-1.25,1.6-2.96,2.85-4.1,1.48-1.37,2.51-3.08,3.88-4.56,3.42-3.88,5.13-8.89,8.78-12.65,1.48-1.37,2.39-3.19,3.76-4.79.24-.3.61-.74,1.01-1.24l-11.7.61c-1.93.71-3.68,1.51-5.49,2.56-2.05,1.37-8.66,3.42-11.06,3.42-1.03,0-1.37-1.03-1.37-1.94,0-.8.23-1.25,1.03-1.71.86-.57,1.76-1.09,2.67-1.59l-19.51,1.02c-.57.32-1.1.66-1.61,1.03.48-.14.9-.22,1.23-.22s1.03.23,1.03.68c0,.8-1.6,1.37-2.17,1.6-1.22.46-2.41.99-3.58,1.54-.83,1.15-1.67,2.54-2.57,4.28-.23.34-.34.68-.34,1.14,0,1.25,2.51,3.88,3.31,4.9,1.03,1.25,2.17,2.17,3.88,2.17,1.37,0,2.39-.57,3.42-1.48,1.82-1.71,4.1-2.05,6.38-3.08,4.33-1.94,8.44-4.22,13.11-5.7,1.6-.46,2.85-1.37,4.33-2.17,1.94-.8,3.88-.8,5.47-2.17.8-.57,4.9-2.62,5.81-2.62-.11,2.17-1.25,4.56-2.62,5.93-1.03,1.14-1.14,2.62-2.17,3.65-1.71,1.48-2.28,3.65-4.1,5.02-1.71,1.37-2.39,3.53-3.99,4.9-1.82,1.48-2.17,3.88-3.88,5.36-2.17,1.71-2.51,2.74-3.88,4.9-1.25,1.94-2.85,3.53-3.99,5.47-2.17,3.31-5.36,5.47-7.87,8.32-.91.91-1.71,1.82-2.74,2.62-1.14.91-2.05,1.14-2.85,2.39-1.6,2.51-4.22,3.88-6.16,6.04-2.28,2.51-5.36,3.99-7.41,6.73-1.37,1.6-2.96,3.08-4.45,4.56-4.45,4.33-15.5,14.93-17.9,20.06-1.37,2.96-6.38,7.98-6.38,10.72,0,1.14.91,2.05,2.05,2.05,4.67,0,15.85-13.11,19.61-16.53,3.31-3.08,6.16-6.73,9.46-9.8,3.65-3.42,5.59-8.32,9.58-11.4,3.53-2.62,5.47-6.38,8.09-9.8,2.28-2.96,4.79-5.7,7.07-8.66,1.25-1.71,2.85-3.31,4.33-4.79,1.6-1.82,3.76-3.19,5.81-4.56,2.05-1.37,3.88-2.74,5.7-4.33,1.14-1.03,2.62-1.6,3.76-2.62,1.94-1.82,4.67-2.51,6.84-4.22,1.48-1.25,3.19-2.28,4.67-3.53s3.31-1.71,4.79-2.85c3.08-2.51,6.95-4.1,10.37-6.16,1.6-.91,3.19-1.6,4.79-2.28,1.42-.57,2.69-1.44,4.06-2.11-.48.18-.87.29-1.09.29-.46,0-1.37-.23-1.37-.8Zm-67.49,50.84c-.34,1.03-4.33,4.33-5.36,5.93-1.25,1.94-3.31,2.96-4.56,4.79-1.37,2.39-2.74,3.88-4.9,5.47-1.82,1.48-2.74,3.76-4.79,5.13-1.03.68-3.19,3.88-3.88,3.88-.57,0-.68-1.03-.68-1.37,0-1.94,1.25-3.65,2.74-4.79,1.48-1.25,2.39-2.96,3.99-4.1,1.6-1.14,2.28-3.19,3.99-4.22,2.17-1.48,3.53-4.45,5.59-5.59,1.82-1.03,7.07-7.18,8.21-7.18.11,0,.23.23.23.34,0,.46-.34,1.25-.57,1.71Z"/>
        <path class="cls-3" d="m467.74,75.98c-1.6,0-10.15,4.22-12.54,5.13-1.94.68-3.53,1.94-5.59,2.39-2.39.57-4.45,1.94-6.73,2.39-2.85.57-5.36,1.82-8.32,1.82-1.03,0-2.51,0-2.51-1.25,0-.91.8-1.82,1.14-2.62.8-1.48,2.51-2.51,3.65-3.65,1.94-1.82,1.94-3.31,4.45-4.79,1.37-.91,4.9-4.56,4.9-6.16,0-.51-.32-1-.82-1.44l-14.93.78c-2.15.91-3.97,2.68-6.14,3.17-2.17.46-4.79,2.17-6.61,3.31-4.22,2.62-9.35,2.74-13.45,5.24-1.82,1.14-3.76,1.82-5.81,2.39-1.14.34-3.65,1.82-4.56,1.82-.34,0-.68-.23-.68-.57,0-1.03,1.6-2.05,2.28-2.62,1.71-1.25,2.39-2.85,3.53-4.56,1.45-2.21,5.37-4.43,7.27-6.92l-12.12.63c-1.37,1.98-5.04,5.56-5.86,6.29-1.03.91-1.48,1.82-2.17,2.96-1.6,2.51-5.36,4.22-5.36,7.41,0,2.51,1.03,4.33,3.65,4.33,5.02,0,9.92-3.76,14.25-5.7,2.39-1.14,4.79-2.05,7.07-3.19,1.71-.91,3.53-1.25,5.36-1.82,2.96-.8,5.59-2.62,8.55-3.42,2.74-.57,12.65-5.59,13.45-5.59.34,0,.34.23.34.46,0,1.03-4.45,4.56-5.24,6.16l-.57.8c-1.82,2.05-4.22,3.65-4.22,6.61,0,1.48.91,4.33,2.51,4.9,1.48.57,3.08.34,4.67.57.23.11.46.11.8.11,1.71,0,8.09-1.48,9.69-2.05,1.37-.57,2.62-1.37,3.99-1.82,1.94-.57,3.65-1.48,5.59-2.05,2.51-.68,4.67-1.94,6.95-2.96,2.96-1.25,5.93-2.62,8.78-4.1.68-.34,2.05-1.14,2.05-2.05,0-.34-.46-.34-.68-.34Z"/>
      </g>
      <path class="cls-4" d="m443.01,63.38c-2.62,0-5.13,2.17-7.52,2.85-.36.09-.7.22-1.04.37l14.93-.78c-1.61-1.44-5.15-2.44-6.37-2.44Z"/>
      <path class="cls-4" d="m381.45,73.3c-.75.38-3.67,1.74-5.58,2.89,2.17-1.11,4.79-2.32,6.15-2.32.46,0,.8.23.8.68,0,.41-.18.64-.45.82,1.43-.77,2.66-1.49,3.19-1.85,1.37-1.03,3.19-1.25,4.67-2.28,1.14-.8,2.17-1.48,3.53-1.94.55-.15,1.06-.4,1.56-.67l-6.67.35c-2.47,1.42-4.76,2.94-7.2,4.31Z"/>
      <path class="cls-4" d="m382.82,74.55c0-.46-.34-.68-.8-.68-1.36,0-3.98,1.2-6.15,2.32-.99.6-1.72,1.13-1.72,1.45,0,.57.91.8,1.37.8.22,0,.61-.11,1.09-.29.28-.14.56-.28.85-.4.61-.28,1.26-.55,1.91-.82.99-.48,2.03-1.02,2.99-1.54.27-.18.45-.41.45-.82Z"/>
    </g>
  </g>
</svg>