<?xml version="1.0" encoding="UTF-8"?>
<svg id="_レイヤー_2" data-name="レイヤー 2" xmlns="http://www.w3.org/2000/svg" viewBox="0 0 398.61 110.4">
  <defs>
    <style>
      .cls-1 {
        fill: #fff;
      }

      .cls-2, .cls-3 {
        fill: #6f89a2;
      }

      .cls-3 {
        stroke: #6f89a2;
        stroke-miterlimit: 10;
      }
    </style>
  </defs>
  <g id="_レイヤー_1-2" data-name="レイヤー 1">
    <path class="cls-1" d="m24.14,1.64c-5.29,0-10.58.04-15.87.2-1.3.04-2.62.06-3.92.14-1.82.12-3.54,1.03-4.11,2.87C-.04,5.74,0,6.67,0,7.59,0,9.15,1.38,10.67,3,10.59c.34-.02.66,0,1,.03,1.62.15,3-1.49,3-3,0-.24,0-.48,0-.72,0-.37.15-.81-.07-.04l-1.38,1.79c-.13.09-1.74.26-.97.32.13.01.28-.01.42-.02.37-.01.74-.03,1.12-.04.85-.03,1.69-.06,2.54-.08,2.62-.07,5.25-.12,7.88-.15,3.49-.04,6.99-.13,10.48.03,3,.13,5.22.39,8.05,1,1.33.28,2.64.63,3.94,1.03.58.18,1.15.38,1.72.58.28.1.56.21.84.32.14.05.28.11.41.16.88.35-.26-.12.24.1,2.22.97,4.34,2.15,6.31,3.56.22.16.45.33.67.49-.38-.29.14.12.26.21.49.4.98.82,1.44,1.26.83.77,1.62,1.59,2.35,2.45.18.21.35.42.52.63.09.1.17.21.25.32-.32-.41-.03-.04.03.04.35.48.69.96,1.02,1.46.66,1,1.25,2.04,1.79,3.11.25.5.49,1.01.72,1.53.14.32,0-.01-.03-.07.05.13.11.26.16.4.12.31.24.62.36.94.43,1.19.8,2.41,1.11,3.64s.57,2.58.76,3.89c.08.53,0-.09.06.45.04.32.07.63.1.95.07.7.12,1.4.15,2.1.3,5.99-.32,11.59-2.43,17.23-.23.6-.42,1.07-.52,1.3-.29.64-.6,1.28-.93,1.91-.57,1.09-1.2,2.14-1.88,3.16-.84,1.25-1.03,1.49-1.96,2.56-.76.88-1.57,1.71-2.42,2.5-.44.41-.89.8-1.35,1.18-.21.18-.42.35-.64.52-.27.21.02-.02.07-.05-.14.11-.29.22-.44.33-.95.7-1.94,1.35-2.95,1.96s-1.97,1.11-2.99,1.6c-.53.25-1.06.5-1.6.73.46-.2-.12.05-.28.11-.29.12-.59.23-.88.34-2.15.8-4.36,1.43-6.6,1.89-.57.12-1.14.23-1.71.32-.26.04-.53.09-.79.13-.2.03-.98.14-.39.06-1.14.15-2.28.26-3.42.33-6.1.37-12.29.06-18.4-.04-1.22-.02-2.44-.04-3.67-.07l2.89,2.2c.11.26.04.49.05-.1,0-.3,0-.6,0-.9,0-1.94-1.92-3.42-3.8-2.89-.34.09-.65.16-1,.21C.92,75.95,0,77.46,0,78.66s-.04,2.51.62,3.63c.98,1.66,2.65,1.92,4.4,1.96,2.89.07,5.79.11,8.68.14,5.65.06,11.3.27,16.91-.49,9.19-1.25,18.18-4.96,24.91-11.46,8.1-7.81,11.63-18.85,11.78-29.91.14-10.42-2.9-20.9-10.18-28.57C48.64,5.02,36.13,1.68,24.14,1.64c-3.86-.01-3.87,5.99,0,6,5.3.01,9.88.54,14.98,2.16,2.45.77,3.84,1.35,6.06,2.55.93.5,1.84,1.05,2.72,1.63.39.26.78.53,1.17.81.03.02.77.58.3.21.3.23.59.47.87.71,3.46,2.9,5.59,5.62,7.6,9.66.88,1.77,1.54,3.52,2.16,5.83s.98,4.46,1.15,6.56c.45,5.4.09,10.59-1.31,15.71-.67,2.46-1.36,4.29-2.4,6.34-.49.97-1.03,1.92-1.62,2.84-.31.49-.63.97-.97,1.45-.11.16-.22.31-.34.47-.11.15-.23.31-.34.46.18-.23.16-.21-.06.07-1.35,1.66-2.85,3.2-4.48,4.59-.21.18-.42.35-.64.53-.04.03-.76.59-.26.21-.36.28-.73.54-1.11.81-.89.63-1.82,1.21-2.76,1.75-1.92,1.1-3.6,1.88-5.17,2.48-1.94.74-3.93,1.33-5.94,1.8-1.13.26-2.28.48-3.42.67-.26.04-.53.08-.79.12-.35.05-.35.05,0,0-.18.02-.35.04-.53.06-.53.06-1.05.11-1.58.16-2.66.23-5.33.19-8,.18-3.45-.02-6.9-.06-10.35-.11-1.36-.02-2.71-.05-4.07-.08-.17,0-.34-.01-.5-.01-.15,0-.31,0-.46-.01,1.1.15,1.75.68,1.95,1.59-.03,0,0-1.04,0-1.15l-2.2,2.89c.35-.05.66-.11,1-.21l-3.8-2.89c0,.78-.13,1.86.16,2.59.51,1.27,1.46,2.17,2.89,2.2,6.61.15,13.24.32,19.85.2,5.08-.09,10.23-.87,15.07-2.45,10.36-3.39,19.29-10.49,23.69-20.61,4.96-11.41,5.08-25.6-.12-36.96-4.7-10.26-14.44-16.89-25.24-19.36-6.9-1.58-13.91-1.45-20.94-1.38-2.71.03-5.43.08-8.14.16-1.67.05-4.21-.25-5.68.62-1.56.93-1.52,2.58-1.52,4.15l3-3c-.34-.03-.66-.04-1-.03l3,3c0-.27.01-.54,0-.81,0-.11.03-.25,0-.35.16.62-2.55,1.43-1.79,1.57.42.08.97-.04,1.4-.06,1.37-.05,2.74-.1,4.1-.13,4.8-.12,9.61-.16,14.42-.16,3.86,0,3.87-6,0-6Z"/>
    <path class="cls-2" d="m0,17.91v50.47c0,1.18.92,2.71,2.2,2.89.35.05.66.11,1,.21,1.88.52,3.8-.95,3.8-2.89V17.89c0-1.51-1.38-3.15-3-3-.34.03-.66.04-1,.03C1.38,14.83,0,16.35,0,17.91c0,1.69,1.38,2.92,3,3,.34.02.66,0,1-.03l-3-3v50.7l3.8-2.89c-.34-.09-.65-.16-1-.21l2.2,2.89V17.91C6,14.05,0,14.05,0,17.91Z"/>
    <g>
      <path class="cls-1" d="m53.18,42.09c-.03-6.53-1.94-12.97-6.4-17.86s-10.85-7.25-17.3-7.95c-4.3-.47-8.7-.15-13.02,0-1.62.06-3,1.33-3,3v47.55c0,1.68,1.38,2.92,3,3,7.43.37,14.92.54,21.87-2.5,5.98-2.62,10.39-7.52,12.79-13.54,1.47-3.69,2.02-7.74,2.06-11.69s-5.96-3.87-6,0c-.03,3.19-.31,5.59-1.34,8.71-.12.37-.26.75-.4,1.11-.05.13-.33.78-.14.36-.31.7-.65,1.38-1.02,2.04-.32.57-.67,1.12-1.04,1.65-.09.13-.55.75-.42.58.1-.13-.44.52-.56.65-1.91,2.17-3.38,3.24-6.03,4.52-.3.15-.61.29-.92.42.43-.18-.38.14-.51.19-.71.26-1.43.49-2.16.69-1.45.4-3.15.71-4.24.82-3.95.4-7.99.18-11.94-.01l3,3V19.27l-3,3c3.58-.12,7.19-.31,10.77-.16,2.86.12,5.54.61,8.46,1.69.14.05.28.11.42.16-.06-.02-.34-.15-.03-.01s.63.28.94.44c.61.3,1.2.63,1.78.98,1.35.83,1.64,1.05,2.75,2.1.44.42.86.85,1.25,1.31.21.24.42.49.62.75-.32-.41.29.42.36.52.64.94,1.42,2.39,1.74,3.14,1.18,2.76,1.63,5.78,1.64,8.9.02,3.86,6.02,3.87,6,0Z"/>
      <path class="cls-1" d="m17.26,23.04c3.77-.13,7.59-.36,11.35-.05,1.45.12,2.32.25,3.9.63.65.16,1.3.34,1.93.54.33.11.67.22.99.34.14.05.28.11.42.16.47.18-.36-.16.1.04,1.17.51,2.3,1.13,3.36,1.85.1.07.76.55.59.42-.15-.11.41.34.55.46.48.42.94.86,1.37,1.32.89.96,1.12,1.23,1.9,2.55.31.52.59,1.05.85,1.59.08.17.16.34.24.51-.02-.05-.16-.39-.03-.06s.24.63.35.94c1.8,5.19,1.68,10.89.02,16.14-.19.6-.4,1.19-.64,1.77-.13.32,0,0,.03-.06-.06.13-.11.26-.18.38-.16.34-.32.67-.5,1-.28.53-.58,1.04-.9,1.54-.15.23-.3.45-.46.67-.1.15-.21.29-.32.44.18-.24.12-.16-.03.03-.78.93-1.62,1.78-2.55,2.57-.52.45.05-.01-.35.28-.26.19-.52.37-.78.54-.54.36-1.09.69-1.66.99-1.42.76-1.91.95-3.54,1.45-.78.24-1.57.44-2.36.6-.36.08-.72.14-1.08.21-.2.03-1.12.16-.8.12-3.89.47-7.88.26-11.78.09l3,3V20.04c0-3.86-6-3.87-6,0v46.01c0,1.67,1.38,2.93,3,3,7.18.31,14.38.42,21.08-2.55,5.49-2.44,9.58-6.94,11.86-12.45,4.74-11.44,2.22-26.85-9.04-33.43-7.29-4.26-15.76-3.86-23.9-3.58-3.85.13-3.87,6.13,0,6Z"/>
    </g>
    <path class="cls-1" d="m125.88,30.11c-4.86-6.13-12.51-8.93-20.2-8.66s-14.98,3.76-19.83,9.83c-1.08,1.36-.71,3.16.99,3.76.15.05.28.12.41.22.77.48,2.12.4,2.73-.35,3.03-3.71,6.99-6.35,11.68-7.43,4.29-.99,9.13-.75,13.22.94,6.03,2.49,9.47,8.06,10.78,14.12.08.38.16.77.22,1.15.02.14.04.27.07.41.07.45-.02-.27.04.31.08.69.14,1.38.16,2.08.07,2.28-.21,4.39-.45,6.54l.66-1.59-.09.11.99-.58c-.11.03-1.11.19-.44.11-.26.03-.53.06-.79.08-.91.08-1.82.12-2.73.15-2.46.09-4.93.11-7.4.11-1.24,0-2.49,0-3.73,0h-21.62c-1.23,0-2.24,1.03-2.25,2.25-.06,6.36,1.69,12.89,6.55,17.29,5.11,4.63,12.12,5.79,18.79,5.18,4.17-.38,8.12-1.43,11.91-3.22l-3.39-1.94v5.48c0,.23-.04.5,0,.72.02.14-.06.31,0,.13l.58-.99c.29-.37.08-.06-.25.1-.22.11-.45.21-.67.31-.45.19-.91.37-1.37.53-1.16.41-2.34.74-3.54,1.01-2.53.57-5.11.8-7.7.84-4.81.08-9.6-.68-13.84-3.06-.8-.45-2.1-.42-2.73.35-.24.29-.46.51-.76.75-1.17.91-.67,2.88.46,3.53,6.03,3.48,13.08,4.33,19.93,3.79,3.36-.27,6.73-.85,9.91-2.01,1.4-.51,3.15-1.03,4.26-2.05.94-.87,1.21-2.04,1.23-3.27.03-1.77,0-3.55,0-5.33,0-.6.03-1.22-.11-1.8-.47-1.94-2.54-2.82-4.3-2.04-6,2.66-13.16,3.95-19.55,1.89s-9.79-8.48-9.89-15.18l-2.25,2.25h18.26c2.13,0,4.25,0,6.38,0,2.85,0,5.71-.02,8.55-.17,2.62-.14,5.82-.08,6.42-3.33,1.45-7.81-.06-16.47-4.93-22.85-.74-.96-1.94-1.47-3.08-.81-.95.56-1.55,2.11-.81,3.08,4.08,5.34,5.32,11.88,4.61,18.46-.02.21-.04.41-.08.62l-.05.3c-.19.57.09.48.82-.26-.17-.06-.69.11-.94.14.55-.07-.23.02-.27.02-1.23.11-2.46.16-3.7.2-2.29.07-4.58.09-6.86.09-5.78,0-11.56,0-17.34,0h-6.99c-1.2,0-2.27,1.03-2.25,2.25.12,7.93,3.71,15.54,11.29,18.79,7.95,3.41,17.3,1.85,24.93-1.61l-1.14.31c-4.74.33-1.02-1.88-1.22-1.12-.03.13,0,.31,0,.44v4.88c0,.15-.11.83,0,.95-.05-.06.12.55.09-.05.34-.29.31-.31-.1-.07-.22.11-.44.21-.66.31-1.59.72-3.29,1.24-4.99,1.64-7.45,1.77-16.15,1.54-22.91-2.36l.46,3.53c.3-.23.52-.45.76-.75l-2.73.35c7.7,4.34,17.54,4.6,25.97,2.44,2-.51,4.03-1.2,5.87-2.16,1.37-.71,1.74-1.9,1.74-3.35v-5.89c0-1.82-1.88-2.65-3.39-1.94-3.57,1.68-7.46,2.55-11.39,2.72-3.52.16-7.18-.14-10.4-1.7-6.38-3.1-8.75-9.64-8.68-16.39l-2.25,2.25c9.94,0,19.89.13,29.83-.03,2.08-.04,4.18-.06,6.25-.28.87-.09,1.86-.15,2.58-.7.64-.49.84-1.12.97-1.88.05-.31-.15.77,0,.11.06-.24.08-.49.11-.74.52-3.71.46-7.49-.34-11.16-1.52-6.9-5.76-13.4-12.28-16.46-10.46-4.91-23.59-1.97-30.89,6.96l2.73-.35c-.47-.29-.96-.5-1.48-.68l.99,3.76c4.13-5.16,10.01-8.27,16.65-8.51s12.83,2.06,17.02,7.34c.76.95,2.39.79,3.18,0,.94-.94.76-2.23,0-3.18Z"/>
    <g>
      <path class="cls-2" d="m120.18,45.93c.81-2.42-.08-5.48-1.07-7.72-1.09-2.48-2.99-4.66-5.37-5.98-6.03-3.34-13.85-1.48-17.94,3.94-1.93,2.56-2.95,5.67-3.37,8.82-.19,1.42.55,2.85,2.17,2.85,5.92,0,11.84,0,17.76,0,1.94,0,4.37.29,6.25-.34,2.73-.92,1.56-5.27-1.2-4.34-.1.03-.27.13-.38.11.76.11.19-.03-.22,0-1.14.07-2.29.07-3.43.07-1.21,0-2.43,0-3.64,0h-15.15l2.17,2.85c.56-4.16,2.23-8.59,6.37-10.36,2.32-.99,5.26-1.04,7.59-.08,1.82.75,3.11,2.08,4.02,3.75.5.92.74,1.59,1,2.75.05.25.1.5.14.75-.06-.41.01.2.02.33.03.46.08.95-.07,1.4-.92,2.75,3.43,3.93,4.34,1.2Z"/>
      <path class="cls-2" d="m117.36,42.43c-2.68.31-5.45.12-8.15.12h-13.7l2.17,2.85c.73-4.34,2.92-8.38,7.47-9.34,1.11-.23,2.39-.25,3.47-.08s1.91.47,2.71.94c.71.41,1.23.86,1.91,1.67.17.2,0,0-.02-.04.06.08.13.17.18.26.13.2.27.4.39.61.22.37.42.76.6,1.15.11.24-.03-.06-.04-.09.05.12.09.24.14.35.08.23.16.46.23.7.11.38.21.77.29,1.17.04.18.06.36.09.54,0,.05-.03-.43,0,.05s.04.93,0,1.4c-.08,1.21,1.09,2.25,2.25,2.25,1.29,0,2.17-1.03,2.25-2.25.29-4.3-1.9-8.83-5.41-11.27-5.07-3.52-12.82-2.36-16.87,2.17-2.15,2.4-3.46,5.46-3.98,8.63-.24,1.42.59,2.85,2.17,2.85,5.42,0,10.85,0,16.27,0,1.84,0,3.74.09,5.58-.12,1.21-.14,2.25-.94,2.25-2.25,0-1.11-1.03-2.39-2.25-2.25Z"/>
    </g>
    <path class="cls-1" d="m167.22,82.29v-.97c0-1.26-1.03-2.19-2.25-2.25-2.36-.12-4.7-.41-7-.98-1.73-.43-3.77-.94-5.22-2.05l.81.81-.11-.18.31,1.14c-.16-1.34-.03-2.75-.03-4.09s-.07-2.61,0-3.9l-3.39,1.94c4.05,2.74,8.81,4.23,13.65,4.72,3.97.41,8.38.14,11.91-1.92,3.31-1.93,5.08-5.45,4.66-9.26-.36-3.3-2.17-5.74-4.84-7.61-6.05-4.25-15.07-5.05-19.55-11.19-3.3-4.52-2.75-11.36,1.71-15.4,2.97-2.69,7.15-3.88,11.08-4.12,4.52-.27,9.81,0,13.89,2.19l-.81-.81c-.43-.61-.12-.68-.19-.31-.04.24,0,.53,0,.77v2.48c0,1.22.04,2.46,0,3.68l3.39-1.94c-1.38-.6-2.67-1.34-4.09-1.87s-2.77.84-2.85,2.17c.03.14,0,.27-.07.41-.29,1.27.39,2.31,1.57,2.77,1.64.63,3.34,2.11,5.19,1.6,1.59-.44,2.31-1.95,2.37-3.47.07-1.77,0-3.56,0-5.33,0-.56.03-1.14,0-1.7-.1-1.83-1.07-2.92-2.69-3.69-3.14-1.48-6.63-2.05-10.07-2.33-6.43-.53-13.46.17-18.8,4.14-4.1,3.05-6.75,7.52-7.19,12.64-.41,4.83,1.21,9.64,4.59,13.12,4.54,4.68,10.75,6.34,16.45,9.07,1.16.56,2.51,1.26,3.44,2s1.28,1.17,1.69,2.01c.11.23,0-.02-.02-.06.04.1.07.2.1.3.07.24.13.47.19.71.09.41,0-.17.04.26.02.27.03.55.02.82-.01.82-.34,1.71-.79,2.24-1.57,1.82-4.49,2.23-6.87,2.28-3.64.06-7.38-.61-10.71-2.09-.8-.36-1.59-.76-2.34-1.21-.81-.48-1.53-1.09-2.48-1.27-2.12-.4-3.6,1.4-3.7,3.35-.08,1.59,0,3.2,0,4.79,0,1.91-.33,4.18,1.17,5.64,1.11,1.09,2.86,1.67,4.29,2.19,1.72.63,3.52,1.06,5.32,1.38,1.97.34,3.97.56,5.97.66,1.13.05,2.37-1.08,2.25-2.25v-.03c-.13-1.21-.95-2.25-2.25-2.25-1.12,0-2.38,1.03-2.25,2.25v.03c.75-.75,1.5-1.5,2.25-2.25-2.92-.14-5.82-.55-8.63-1.39-1.1-.33-2.18-.71-3.2-1.24-.04-.02-.71-.4-.71-.39.03-.04.3.47.3.47,0,0,0-.33,0-.35.2-1.34,0-2.85,0-4.21v-2.23c0-.2.03-.44,0-.64-.05-.31.13-.14,0,.04l-.81.81-.29.07-1.14-.31c1.18.54,2.24,1.38,3.42,1.95,1.3.62,2.65,1.17,4.02,1.6,2.72.85,5.61,1.3,8.46,1.37,4.35.1,9.6-.83,12.07-4.84,1.93-3.14,1.38-7.34-.89-10.12-2.94-3.59-7.94-4.9-12.02-6.65-3.68-1.58-7.59-3.56-10.11-6.78-1.8-2.3-2.5-5.29-2.35-8.38.04-.82.06-.96.25-1.8.17-.77.47-1.72.73-2.32.59-1.36,1.5-2.7,2.57-3.8,2.78-2.86,6.69-4.34,10.61-4.8,3.07-.36,6.27-.25,9.32.18,1.39.2,2.77.48,4.11.89.49.15.98.3,1.44.5.18.08.36.16.53.25.17.08.33.17.49.26-.16-.15-.26-.33-.29-.54-.03,0,0,3.19,0,3.52v2.51c0,.26-.04.56,0,.82.14.92-.92-1.05.96-.81l1.14.31c-1.33-.58-2.59-1.3-3.96-1.82l1.57,2.77c.12-.53.19-1.06.23-1.6l-2.85,2.17c1.05.39,1.99.97,3.02,1.42,1.57.68,3.31-.1,3.39-1.94.1-2.31.07-4.67,0-6.98-.02-.8-.08-1.5-.6-2.14-.72-.9-2.15-1.35-3.19-1.73-2.34-.86-4.85-1.23-7.32-1.48-8.79-.88-19.7,1.06-24.01,9.83-1.75,3.56-2.11,7.72-1.13,11.56.93,3.64,3.27,6.56,6.21,8.8,3.88,2.96,8.42,4.42,12.82,6.39,1.79.8,3.73,1.72,5.13,3.01,1.07.98,1.53,1.76,1.8,3.12.08.41-.04-.54.03.18.02.23.03.47.04.7,0,.43,0,.86-.09,1.28-.18.9-.6,1.66-1.24,2.29-1.41,1.38-3.54,1.97-5.45,2.21-5.74.73-11.98-.92-16.74-4.14-1.5-1.02-3.29.36-3.39,1.94-.14,2.51-.14,5.15,0,7.66.15,2.81,3.51,3.75,5.79,4.47,3.21,1.02,6.61,1.47,9.96,1.64l-2.25-2.25v.97c0,2.9,4.5,2.9,4.5,0Z"/>
    <path class="cls-2" d="m171.82,45.72c-2.79-1.12-5.85-2.43-7.84-4.41-.08-.08-.42-.54-.13-.13-.14-.19-.25-.39-.37-.59-.07-.11-.24-.6-.04-.06-.07-.2-.12-.4-.18-.6-.1-.29-.06-.37-.03-.02-.02-.21-.04-.42-.04-.63,0-.23.02-.46.02-.7,0-.38-.16.59-.01.09.04-.14.06-.29.1-.44.04-.16.09-.31.14-.47.16-.54-.19.31.03-.09.11-.2.66-1.02.38-.69.16-.2.34-.37.52-.56.03-.03.52-.42.19-.17,2.4-1.78,6.04-1.59,9.02-1.26.9.1,2.01-.76,2.17-1.65.06-.35.14-.65.26-.98.55-1.52-.84-2.7-2.17-2.85-5.86-.67-13.37.25-15.67,6.63-.7,1.93-.67,4.26.08,6.17.95,2.41,2.92,4.1,5.09,5.42,5.48,3.33,12.22,4.47,17.12,8.8,1.6,1.41,2.81,3.05,3.39,4.84.69,2.11.84,4.3.43,6.63-1.13,6.43-6.66,9.67-12.67,10.75-.96.17-1.65,1.25-1.65,2.17v1c0,1.57,1.43,2.42,2.85,2.17,7.48-1.32,14.46-5.85,16.52-13.51,1.76-6.56-.02-13.63-5.21-18.1-3.58-3.09-7.93-5.05-12.3-6.75-1.13-.44-2.47.49-2.77,1.57-.35,1.27.43,2.33,1.57,2.77,3.31,1.29,6.66,2.79,9.51,4.94,1.06.8,2.06,1.74,2.89,2.78.47.59,1.31,2.05,1.55,2.66,1.94,4.95.83,11.18-3.25,14.98-2.66,2.48-6.19,3.7-9.71,4.32l2.85,2.17v-1l-1.65,2.17c5.73-1.02,11.4-3.94,14.19-9.27,2.46-4.69,2.68-10.72.43-15.53s-7.51-8-12.34-10.13c-3.22-1.42-6.6-2.52-9.61-4.39-.94-.58-1.74-1.15-2.47-2.04.2.25-.11-.15-.16-.24-.11-.18-.21-.35-.31-.54-.17-.32.03.17-.12-.3-.07-.22-.13-.45-.18-.68,0-.03-.06-.36-.03-.1.04.29-.02-.26-.02-.32,0-.25-.01-.49,0-.74,0-.14.1-.74.02-.34.05-.28.12-.55.2-.82.21-.73.73-1.51,1.56-2.17,2.48-1.98,6.72-1.81,9.87-1.45l-2.17-2.85c-.12.33-.2.63-.26.98l2.17-1.65c-4.98-.54-11.75-.07-14.13,5.19-1.44,3.18-.79,6.84,1.79,9.24s6.12,3.81,9.38,5.13c1.13.45,2.47-.5,2.77-1.57.35-1.29-.44-2.31-1.57-2.77Z"/>
    <g>
      <path class="cls-2" d="m224.52,78.98h-6.82c-.13,0-.92-.1-1.01,0,.08-.09.93.69.8.8.08-.06,0-.68,0-.77V27.04c0-.17.09-.7,0-.85-.27-.44-.43,1.64-.95.89.05.08.77,0,.87,0h6c.23,0,.96.13,1.16,0-.47.32-.83-1.77-1-.73s0,2.26,0,3.32v40.3c0,3.18-.17,6.41,0,9.59.05.98-.24-.48.95-.57-1.21.09-2.25.97-2.25,2.25,0,1.15,1.03,2.34,2.25,2.25,2.17-.17,3.47-1.41,3.55-3.6.01-.29,0-.57,0-.86V26.99c0-.31.01-.62,0-.92-.08-2.06-1.37-3.39-3.43-3.5-2.39-.12-4.82,0-7.22,0-1.57,0-3.12.22-3.98,1.74-.38.67-.43,1.4-.44,2.14-.02,1.22,0,2.44,0,3.66v47.94c0,1.14-.13,2.45.4,3.49,1.4,2.74,5.86,1.92,8.41,1.92h2.72c2.9,0,2.9-4.5,0-4.5Z"/>
      <path class="cls-2" d="m214.11,25.26c-.27.75-.12,1.84-.12,2.61v51.02c0,.3-.02.6,0,.89.11,1.96,1.49,2.69,3.24,2.69h4.68c1.13,0,2.38.13,3.5-.11.95-.21,1.66-1.22,1.65-2.17-.07-6.09,0-12.18,0-18.27v-29.29c0-2.25.18-4.57-.02-6.81-.11-1.22-.95-2.23-2.25-2.25-1.49-.02-2.98,0-4.46,0h-2.84c-.55,0-1.3-.08-1.82.12-1.13.43-1.92,1.52-1.57,2.77.3,1.09,1.63,2.01,2.77,1.57-.41.16-.38.02-.05.04.31.02.62,0,.93,0h2.83c1.4,0,2.81-.01,4.21,0l-2.25-2.25c.16,1.81.02,3.69.02,5.5v42.14c0,2.24-.03,4.49,0,6.73l1.65-2.17c.75-.16-.62-.05-.83-.05h-2.79c-1.38,0-2.82.12-4.2-.03l1.59.66-.12-.12.66,1.59c-.2-1.8-.03-3.71-.03-5.52V27.88c0-.44.01-.88,0-1.32,0-.34.14-.61-.04-.09.97-2.73-3.37-3.91-4.34-1.2Z"/>
      <path class="cls-2" d="m220.53,12.63c-.17,0-.35,0-.52-.02h-.17c-.26-.04-.22-.03.1,0-.2.05-.61-.12-.79-.17-.15-.04-.3-.1-.45-.15-.42-.14.11.05.11.05-.07.03-.91-.46-.91-.53,0,0,.36.31.1.08-.11-.1-.22-.19-.33-.3s-.2-.22-.3-.32c-.3-.32.08.11.08.11-.12,0-.42-.66-.47-.77-.02-.03-.13-.22-.13-.28.12.3.14.33.05.1-.04-.1-.07-.2-.1-.3-.08-.26-.13-.53-.19-.79-.12-.55.01.5,0-.07,0-.18-.02-.35-.03-.53,0-.29.01-.58.03-.87.03-.57-.12.47.01-.07.04-.16.07-.32.11-.48s.09-.31.14-.46l.05-.15c.09-.23.07-.2-.05.1-.03-.14.29-.56.36-.67.05-.08.17-.33.26-.37-.01,0-.36.41-.07.1.1-.11.2-.22.31-.33.05-.05.46-.49.23-.22-.22.25.07-.05.14-.09.13-.08.26-.16.39-.24.11-.06.24-.1.34-.18.24-.18-.51.17-.04.01.28-.09.56-.18.84-.25.11-.02.3-.1.4-.08-.32.04-.35.05-.1.02.11-.01.23-.02.34-.02.29-.01.58-.01.87,0h.17c.26.04.22.03-.1,0,.11-.02.29.05.4.08.29.06.56.16.83.24.47.15-.28-.2-.04-.02.14.1.32.16.47.25.04.02.38.21.37.24,0,0-.36-.31-.1-.08.22.2.43.41.63.62.3.32-.08-.11-.08-.11.05,0,.22.33.25.37.08.13.15.26.22.4.04.07.07.14.1.21.07.15.04.09-.08-.18.16.13.23.72.28.92.02.11.04.22.07.32.12.55-.01-.5,0,.07.01.29.03.59.03.88,0,.17-.02.34-.03.52-.03.26-.02.22.02-.1-.02.11-.04.22-.06.32-.06.31-.16.61-.25.92-.14.48.19-.3.02-.04-.09.15-.15.32-.24.47-.07.13-.16.25-.24.38-.26.42.33-.35,0,.01-.22.23-.47.44-.68.67s.46-.29.04-.04c-.17.1-.33.22-.51.31-.11.06-.23.1-.34.17-.15.07-.09.04.18-.08-.1.04-.19.07-.29.1-.31.1-.62.16-.93.23-.54.12.5-.02-.06,0-.23,0-.46.03-.69.03-1.18.01-2.3,1.03-2.25,2.25s.99,2.26,2.25,2.25c3.66-.04,6.83-2.04,8.08-5.53,1.13-3.16.36-7.34-2.27-9.55-2.78-2.34-6.94-2.71-10.13-.93s-4.54,5.67-3.97,9.26c.28,1.76,1.2,3.55,2.58,4.71,1.62,1.37,3.58,2.03,5.7,2.05,1.18.01,2.3-1.04,2.25-2.25s-.99-2.24-2.25-2.25Z"/>
      <path class="cls-2" d="m220.65,1c-3.29.04-6.15,1.94-7.19,5.1-.92,2.79-.2,6.44,2.16,8.33,2.48,1.98,6.15,2.28,8.92.68,2.91-1.67,3.93-5.06,3.4-8.23-.25-1.54-1.06-3.1-2.27-4.1-1.43-1.19-3.16-1.76-5.02-1.78-1.18-.01-2.3,1.04-2.25,2.25s.99,2.24,2.25,2.25c.15,0,.29,0,.44.01h.14c.25.04.19.03-.18-.02.18.08.46.09.66.14.13.03.25.08.37.12.45.13-.47-.25-.07-.03.22.12.43.24.64.37.38.24-.39-.36-.07-.05.06.06.12.11.18.16.09.08.17.18.25.26.31.32-.29-.45-.05-.07.11.18.23.35.32.53.13.24.05.4-.01-.07.02.11.1.26.13.37.08.26.14.52.19.79.08.4-.04-.15-.02-.18-.03.04.03.37.03.44.01.27,0,.54-.01.81-.02.3-.16.24.02-.11-.07.14-.07.38-.11.54-.05.18-.19.45-.2.63l.13-.3c-.03.08-.07.15-.11.23-.06.11-.12.22-.18.33-.04.07-.09.14-.14.21-.24.39.36-.39.05-.06-.17.18-.34.35-.52.52-.33.31.45-.29.06-.05-.11.07-.21.14-.32.2-.07.04-.15.08-.22.12l-.11.06c-.22.1-.15.07.18-.07-.21,0-.49.16-.7.22-.11.03-.22.05-.33.07-.24.04-.18.03.18-.02-.09.01-.19.02-.29.02-.24.02-.49.02-.73,0-.1,0-.33-.06-.43-.03.3-.11.45.09.12,0-.24-.06-.47-.1-.71-.18-.25-.08-.35-.26.06.04-.1-.07-.23-.11-.34-.17s-.21-.12-.32-.19c-.23-.15-.22-.31.06.06-.11-.15-.31-.27-.44-.42-.17-.18-.19-.4.04.08-.03-.07-.1-.14-.14-.2-.07-.1-.13-.21-.19-.32-.04-.07-.08-.15-.12-.22-.1-.21-.08-.15.07.19-.03-.2-.15-.42-.21-.62-.03-.13-.06-.26-.09-.4-.01-.07-.13-.5-.02-.12s0-.04,0-.13c0-.15-.01-.3-.01-.45s0-.29.01-.44v-.14c.04-.25.03-.19-.02.18.13-.19.13-.63.21-.86.03-.1.1-.21.11-.31-.14.33-.17.39-.07.18.04-.08.08-.15.12-.23.04-.07.09-.15.13-.22.05-.07.09-.14.14-.21.14-.19.1-.14-.12.15.18-.11.37-.39.53-.54.33-.32-.44.29-.06.04.14-.09.28-.19.43-.27.08-.04.15-.08.23-.12.22-.1.16-.08-.18.07.08-.03.16-.06.25-.09.26-.09.52-.14.79-.21.49-.11-.54.03-.04,0,.2,0,.39-.02.58-.03,1.18-.01,2.3-1.03,2.25-2.25s-.99-2.26-2.25-2.25Z"/>
    </g>
    <path class="cls-1" d="m293.51,75.97c-.07,7.96-.72,17.06-6.72,22.91-5.14,5.01-12.8,6.16-19.75,5.99-2.03-.05-4.06-.18-6.07-.5-1.28-.2-2.56-.46-3.81-.81-.59-.16-1.18-.35-1.76-.55-.23-.08-.45-.16-.68-.26-.24-.1-.76-.57-.46-.02l.31,1.14c-.21-2.75-.01-5.59-.01-8.35l-3.39,1.94c7.31,3.92,16.72,5.18,24.81,3.24,6.17-1.48,10.62-5.77,12.36-11.86.95-3.34,1.09-6.82,1.09-10.26,0-1.83-1.88-2.64-3.39-1.94-3.51,1.63-7.34,2.01-11.18,1.9s-7.45-.85-10.77-2.55c-5.75-2.94-9.61-8.28-11.32-14.44s-1.48-13.46,1.19-19.5,7.6-10.71,13.7-13.05c3.83-1.47,7.87-2.1,11.96-2.06,5.38.05,10.88.86,15.88,2.92l-1.65-2.17c.06,1.15-.2,2.39-.27,3.54s1.09,2.36,2.25,2.25c.35-.03.65-.03,1,.01,1.26.15,2.19-1.15,2.25-2.25.07-1.2.31-2.46.25-3.66-.09-1.72-1.2-2.57-2.68-3.16-2.5-1-5.13-1.66-7.77-2.12-5.29-.92-10.69-1.18-16.01-.36-8.24,1.26-15.77,5.56-20.73,12.29-10.03,13.6-7.54,36.03,7.18,45.27,3.52,2.21,7.57,3.6,11.68,4.18,5.18.73,10.87.56,15.78-1.39l-2.85-2.17c0,3.61-.47,7.53-2.25,10.49-.72,1.2-1.78,2.32-2.89,3.04-1.44.94-2.66,1.38-4.37,1.77-4.76,1.1-10.17.73-14.87-.52-1.2-.32-2.41-.7-3.56-1.19-1.24-.53-2.56-1.61-3.95-1.57-2.36.06-2.99,2.2-2.99,4.13,0,2.6-.3,5.38.06,7.97.4,2.89,3.83,3.82,6.22,4.52s5.08,1.12,7.66,1.37c8.35.82,17.8.08,24.82-4.96,3.82-2.74,6.59-6.43,8.36-10.76,2.34-5.71,2.75-12.15,2.82-18.25.01-1.28-1.05-2.17-2.25-2.25-.14,0-.27-.03-.4-.1-2.78-.83-3.97,3.51-1.2,4.34.52.16,1.05.22,1.59.26l-2.25-2.25c-.07,5.91-.38,12.31-2.97,17.73-1.86,3.88-4.7,6.94-8.49,8.95-4.36,2.31-9.44,3.01-14.32,3.05-2.31.02-4.64-.1-6.93-.39-1.27-.16-2.54-.39-3.79-.69-.74-.17-1.47-.37-2.19-.61-.36-.11-.71-.24-1.06-.37-.18-.07-1.03-.54-1.15-.49-.03.01-.14-.03-.18-.03.26-.01.1.53.13.26.02-.25,0-.52,0-.78v-5.86c0-.38.02-.77,0-1.15-.05-.79.23-.06-.21.3l-.99.58v.02c-.38-.1-.76-.2-1.14-.31,1.86.87,3.65,1.79,5.61,2.42s4.04,1.05,6.12,1.33c3.83.51,7.76.55,11.58-.13,5.64-1,10.12-4.28,12.27-9.64,1.28-3.2,1.65-6.81,1.65-10.23,0-1.33-1.46-2.72-2.85-2.17-6.47,2.57-14.63,2.14-20.87-.67s-10.57-7.72-12.59-14.04c-2.24-7.03-2.03-15.36,1.13-22.09,2.82-6.01,7.85-10.74,14.07-13.11,3.94-1.5,8.09-2.14,12.29-2.11,2.92.03,5.84.28,8.72.82,1.33.25,2.65.56,3.96.93,1.07.31,2.5.6,3.4,1.24l-.81-.81c-.19-.28.02-.59-.06.02-.04.34-.07.67-.1,1.01-.06.7-.11,1.39-.15,2.09l2.25-2.25c-.35-.04-.65-.05-1-.01l2.25,2.25c.06-1.16.33-2.39.27-3.54s-.68-1.77-1.65-2.17c-4.86-2-10.24-2.83-15.46-3.04-4.36-.18-8.79.24-12.97,1.55-7.25,2.28-13.57,7.13-17.24,13.84-7.23,13.24-4.3,32.52,8.91,40.92,8.13,5.17,19.71,5.76,28.38,1.73l-3.39-1.94c0,2.53-.03,5.06-.56,7.54-.25,1.21-.69,2.68-1.12,3.61-.48,1.03-1.19,2.19-1.76,2.83-1.56,1.76-3.4,2.84-5.65,3.51-3.08.92-6.34,1.02-9.54.86-4.47-.23-8.91-1.24-12.87-3.36-1.49-.8-3.38.19-3.39,1.94,0,2.76-.21,5.6.01,8.35.16,2.04,2.14,2.73,3.79,3.36,1.44.55,2.94.93,4.45,1.23,2.78.55,5.63.83,8.47.91,10.44.3,21.53-2.64,27.01-12.28,3.6-6.34,4.15-13.97,4.21-21.11.03-2.9-4.47-2.9-4.5,0Z"/>
    <g>
      <path class="cls-1" d="m262.02,53.41c.05,6.39,2.59,12.7,8.35,15.97,5.18,2.94,12.7,3.18,17.95.33.69-.37,1.11-1.17,1.11-1.94v-29.92c0-1.07-.71-1.81-1.65-2.17-6.25-2.38-14.08-1.65-19.31,2.64-4.43,3.64-6.41,9.49-6.45,15.09-.02,2.9,4.48,2.9,4.5,0,.03-4.36,1.46-8.84,4.9-11.71,4.08-3.41,10.4-3.5,15.17-1.68l-1.65-2.17v29.92l1.11-1.94c-2.34,1.26-5.22,1.4-7.82,1.27-1.88-.1-3.9-.64-5.59-1.6-4.35-2.47-6.08-7.23-6.12-12.08-.02-2.89-4.52-2.9-4.5,0Z"/>
      <path class="cls-1" d="m285.26,65.35c-1.9.9-4.14.99-6.21.98-1.51,0-2.78-.21-4.27-.72-2.77-.96-5.11-3.16-6.32-5.95-2.62-6.03-1.17-14.87,4.83-18.32,3.69-2.12,8.55-2.11,12.51-.78l-1.65-2.17v28.9c0,2.9,4.5,2.9,4.5,0v-28.9c0-1.04-.71-1.85-1.65-2.17-4.72-1.59-10.26-1.44-14.81.63-3.87,1.76-6.65,5.15-8.13,9.07-3.13,8.31-.69,19.54,7.97,23.38,4.73,2.1,10.82,2.15,15.51-.08,1.1-.52,1.38-2.09.81-3.08-.66-1.12-1.98-1.33-3.08-.81Z"/>
    </g>
    <path class="cls-1" d="m364.61,76.18l-.34-.03c-1.21-.12-2.25,1.13-2.25,2.25v.88c0,.34-.17.91.04.31l1.57-1.57c.42-.16.38-.02.05-.04-.28-.02-.58,0-.86,0h-5.58c-.3,0-.6-.01-.9,0-.35.02-.47-.12.01.05l1.57,1.57c.14.35.02.07.02-.19,0-.42,0-.84,0-1.27v-29.06c0-3.88-.2-7.71-1.79-11.32-2.44-5.52-7.97-8.2-13.85-7.85-3.64.22-7.2,1.37-10.23,3.41-1.57,1.06-3.03,2.31-4.3,3.72-.66.73-1.27,1.41-1.32,2.45-.11,2.22,0,4.48,0,6.71v12.84c0,6.87.03,13.74,0,20.61,0,.19,0,.38,0,.57l2.25-2.25c-1.39.12-2.83.02-4.23.02s-2.83.15-4.19-.02l2.17,1.65c.14.37.02.34.04,0s0-.71,0-1.07v-39.17c0-1.2,0-2.39-.02-3.59-.03-1.92-.09-3.83-.17-5.75-.06-1.38-.27-2.81-.26-4.19l-2.25,2.25c1.22-.1,2.49-.02,3.72-.02s2.54-.1,3.79.03l-1.14-.31.16.1-.81-.81c-.04-.17-.03-.11.04.21.04.23.08.46.11.69.13.89,1.28,1.74,2.17,1.65.44.05.57.03.4-.07,1.8.25,3.03-.95,2.77-2.77-.34-2.31-1.44-4.11-3.98-4.22-.85-.04-1.7,0-2.55,0-2.21,0-6.03-.69-7.42,1.51-.85,1.36-.41,3.19-.33,4.69.1,1.97.17,3.93.21,5.9.03,1.52.04,3.03.04,4.55v39.3c0,1.26-.09,2.53.71,3.61,1.41,1.9,4.59,1.33,6.65,1.33s5.71.63,7.04-1.47c.64-1.01.56-2.18.56-3.32v-38.93l-.66,1.59c3.06-3.52,7.03-5.88,11.78-5.97,3.23-.06,6,.99,7.61,3.69,2.25,3.78,1.77,8.64,1.77,12.91v17.46c0,3.53-.27,7.19.02,10.71.19,2.33,1.97,3.33,4.12,3.33h4.63c1.19,0,2.62.18,3.79-.13,2.41-.65,2.52-2.92,2.52-4.98,0-1.61-1.43-2.37-2.85-2.17l-.06-.02c-2.88.17-2.9,4.67,0,4.5.42-.02.84-.09,1.26-.15l-2.85-2.17v1.01c0,.08-.05.43,0,.51.03.04.71-1.34.95-.91-.06-.11-1.31,0-1.44,0h-5.65c-.22,0-.53-.06-.74,0-.69.2,1.38-.38.8.84.05-.1,0-.3,0-.41.08-.91,0-1.86,0-2.77v-22.49c0-6.54.8-14.16-3.9-19.4-3.69-4.12-9.91-4.57-14.96-3.15-3.13.88-5.96,2.6-8.31,4.82-1.16,1.1-2.33,2.19-2.33,3.85v38.28c0,.46,0,.91,0,1.37,0,.3.28-.24,0,.03,1.93-1.92,1.4-.83.83-.96-.67-.15-1.55,0-2.24,0-1.75,0-3.54-.1-5.29,0-1.01.06,1.31-.04.73.93.06-.09,0-.36,0-.47.18-2.18,0-4.46,0-6.65v-32.26c0-2.45-.01-4.9-.08-7.36-.04-1.41-.09-2.83-.17-4.24-.03-.56-.06-1.12-.1-1.68-.02-.22-.03-.44-.05-.66-.01-.12-.02-.24-.03-.36-.03-.63-.39-.34-1.09.85.35.13.98,0,1.34,0h3.04c.74,0,1.57.11,2.3,0,.03,0,.36.03.37,0-.76,1.34-.37-.48-.6-.35-.01,0,.22,1.2.23,1.27l2.77-2.77c-.55-.08-1.05-.15-1.6-.09l2.17,1.65c-.26-1.76-1.04-3.11-3.01-3.21-.72-.04-1.44,0-2.16,0-1.67,0-3.38-.13-5.04.02-1.22.1-2.23.95-2.25,2.25-.01,1.16.17,2.35.23,3.52.08,1.7.14,3.41.18,5.11.03,1.45.05,2.9.05,4.35v39.52c0,.73-.14,1.78.13,2.47.4,1.04,1.09,1.52,2.17,1.65,1.36.17,2.82.02,4.19.02s2.84.11,4.23-.02c1.19-.1,2.28-.95,2.25-2.25-.25-11.9,0-23.84,0-35.74v-5.08l-.66,1.59c2.88-3.43,6.72-6.03,11.26-6.52,3.49-.38,6.82.28,9.09,2.86,3.09,3.51,2.8,8.77,2.8,13.27v16.93c0,4.04-.16,8.12,0,12.17.07,1.69.99,2.72,2.7,2.78,1.36.05,2.72,0,4.08,0,1.23,0,2.48.07,3.72,0,2.48-.13,2.57-2.14,2.57-4.08l-2.25,2.25.34.03c1.21.12,2.25-1.12,2.25-2.25,0-1.32-1.04-2.13-2.25-2.25Z"/>
    <path class="cls-2" d="m348.19,19.43c-3.17.03-6.31.57-9.28,1.69-1.22.46-2.28,2.03-1.34,3.31.21.28.36.55.51.86.39.83,1.68,1.35,2.54,1.03,3.01-1.11,6.15-1.56,9.34-1.32.17.01.34.03.51.04.12.01.87.11.27.02.42.06.83.13,1.25.21.9.18,1.79.43,2.65.74.21.08.43.16.64.25-.4-.17.16.08.28.14.46.22.91.46,1.34.73,1.03.63,1.31.84,2.17,1.68,1.55,1.51,2.7,3.37,3.46,5.52,1.41,3.94,1.49,8.05,1.49,12.18v22.69c0,1.13,1.03,2.37,2.25,2.25.14,0,.27-.01.4-.05,1.42.2,2.85-.56,2.85-2.17v-21.65c0-6.92-.32-14.14-4.44-20.04s-10.17-8.09-16.89-8.13c-2.9-.02-2.9,4.48,0,4.5,2.72.02,5.57.43,7.95,1.62,1.01.5,2.06,1.18,2.75,1.78.4.35.78.71,1.15,1.1.3.32.8.91.88,1.02,1.36,1.8,2.14,3.52,2.76,5.46.31.98.57,1.98.77,2.99.09.45.16.9.24,1.35.02.1.03.2.05.3.05.36-.04-.35,0,0,.03.23.06.46.08.69.25,2.33.21,4.68.21,7.02v21.99l2.85-2.17c-.54-.08-1.05-.17-1.6-.11l2.25,2.25v-22.38c0-4.52-.08-9.09-1.55-13.41-1.64-4.82-4.87-9-9.59-11.11-5.59-2.5-12.25-2.43-17.95-.33l2.54,1.03c-.15-.32-.3-.58-.51-.86l-1.34,3.31c2.62-.99,5.28-1.5,8.08-1.52s2.9-4.53,0-4.5Z"/>
    <g>
      <path class="cls-2" d="m390.55,87.37c-3.98,0-6.66-2.72-6.66-6.77s2.8-6.66,6.66-6.66,6.54,2.74,6.54,6.66c0,4.11-2.57,6.77-6.54,6.77Zm0-12.43c-3.33,0-5.66,2.33-5.66,5.66,0,3.5,2.22,5.77,5.66,5.77s5.54-2.21,5.54-5.77c0-3.33-2.28-5.66-5.54-5.66Z"/>
      <g>
        <path class="cls-2" d="m390.55,85.87c-1.19-.01-2.18-.27-3.16-.91-.67-.44-1.39-1.39-1.65-2.22-.7-2.27-.35-4.72,1.53-6.23.72-.58,1.9-1,2.91-1.05,1.21-.06,2.23.14,3.21.75.8.49,1.49,1.33,1.81,2.18.42,1.11.51,2.39.3,3.46-.5,2.6-2.32,4-4.95,4.02-1.93.02-1.93,3.02,0,3,3.43-.04,6.39-1.87,7.55-5.16,1.1-3.1.43-7.09-2.12-9.3s-6.71-2.61-9.72-.84-4.32,5.51-3.67,8.97c.73,3.89,4.12,6.29,7.96,6.33,1.93.02,1.93-2.98,0-3Z"/>
        <path class="cls-2" d="m390.55,73.44c-3.1.03-5.84,1.81-6.81,4.81-.88,2.72-.18,6.21,2.12,8.04s5.8,2.11,8.39.68c2.72-1.51,3.67-4.78,3.23-7.71-.52-3.47-3.48-5.78-6.93-5.82-1.93-.02-1.93,2.98,0,3,.16,0,.31,0,.47.02.02,0,.51.07.2.02.24.04.48.09.71.16.14.04.27.09.4.14-.25-.1.03.01.09.05.26.14.52.28.76.46-.22-.16.01.02.06.06.08.08.17.15.24.23.09.1.18.2.27.3-.18-.21.01.02.05.08.14.21.26.43.38.65.21.37-.07-.25.07.16.05.14.1.27.14.41s.08.28.11.43c0-.03.08.45.05.25s.02.3.02.26c.01.16.02.32.02.48,0,.27-.02.53-.04.8-.04.48.07-.25-.03.2-.04.17-.07.33-.11.5-.06.25-.14.49-.24.73.11-.26-.15.27-.2.36-.07.11-.14.22-.21.33-.22.33.2-.18-.08.1-.18.18-.35.37-.55.53.24-.2-.24.15-.33.2-.11.07-.23.12-.35.18-.37.19.27-.06-.14.05-.22.06-.44.14-.67.19-.14.03-.28.06-.42.08.3-.04-.18,0-.19,0-.31.02-.62.02-.93,0-.1,0-.2-.01-.3-.03.31.03-.16-.03-.19-.03-.23-.05-.46-.1-.69-.18-.03,0-.46-.17-.15-.04-.16-.07-.32-.15-.48-.24-.1-.06-.58-.39-.35-.21-.17-.13-.33-.28-.48-.44-.09-.09-.18-.19-.26-.29.21.26-.05-.09-.07-.12-.15-.22-.27-.46-.38-.71.13.29-.04-.13-.05-.16-.03-.09-.06-.18-.08-.27-.04-.14-.07-.28-.1-.42,0-.02-.09-.49-.04-.19-.08-.56-.09-1.16-.01-1.72-.04.3.04-.19.04-.2.04-.19.09-.38.15-.57.03-.09.06-.18.1-.27-.1.27.11-.23.14-.28.07-.12.14-.24.21-.36.03-.05.27-.37.09-.14.17-.21.36-.41.56-.59.02-.02.37-.29.12-.11.15-.11.3-.21.47-.3.08-.05.16-.09.25-.13.08-.04.17-.08.26-.12-.14.06-.13.06.04,0,.28-.08.56-.16.85-.23.45-.1-.26,0,.21-.03.21-.01.42-.03.63-.03,1.93-.02,1.93-3.02,0-3Z"/>
      </g>
    </g>
    <circle class="cls-3" cx="390.68" cy="81.13" r="6"/>
    <circle class="cls-3" cx="220.68" cy="8.13" r="6"/>
  </g>
</svg>